Simulation
nRows=36
nColumns=15
endheader
time  TH_x TH_y TH_z SC_y  SC_z  SC_x  AC_y  AC_z  AC_x  GH_y  GH_z  GH_yy  EL_x  PS_y
0.0  0.000000  0.000000  0.000000  -27.217039010901193  14.1447082422759  12.952011414213503  33.91001341663136  -23.60682915272159  26.77247863624672  -124.88876069609854  4.842568339345789  145.60424245233804  24.99813671688187  0.000000
0.015  0.000000  0.000000  0.000000  -27.813597358765463  13.785829841507166  13.229455684223941  34.702329460837554  -24.626768213432918  26.97214734296717  -141.21437576762844  5.267199900380779  161.72053413790692  25.333294182582943  0.000000
0.03  0.000000  0.000000  0.000000  -27.184735444821335  13.862134744727154  13.468344739484209  35.01183382754068  -24.863271936786898  27.030836437529935  -153.31007560153964  5.817857962368421  173.79762521619398  25.574053413924496  0.000000
0.045  0.000000  0.000000  0.000000  -26.898249700032967  13.657877529030364  13.294601323899728  34.87280965986714  -24.787367186798832  26.92637036918254  -163.20361422807898  6.088872421508496  -176.555036246275  25.714134167186305  0.000000
0.06  0.000000  0.000000  0.000000  -26.755853087615822  13.594655990261911  13.092668208913105  34.823461015239126  -24.76074453970282  26.92229598043035  -170.45206732914602  5.982944899720981  -169.63901881293313  25.804466174301556  0.000000
0.075  0.000000  0.000000  0.000000  -26.882369497314926  13.725294524996784  13.193830405126281  34.719962325200605  -24.85808653531491  26.79167146892321  -176.08162082028386  5.638565694306731  -164.53717646044433  25.82185002753988  0.000000
0.09  0.000000  0.000000  0.000000  -27.15543576249325  13.962353873687018  13.461073987832485  34.732394397007  -25.0730971307469  26.6789775940165  178.97991124636016  5.074813117679872  -160.30044255320547  25.8028827195461  0.000000
0.105  0.000000  0.000000  0.000000  -27.56708644633473  14.315573541654567  13.905788890380514  34.73511810224771  -25.343960441760156  26.515529915843562  174.1172591717742  4.338962733112815  -156.28346975224144  25.747566885351112  0.000000
0.12  0.000000  0.000000  0.000000  -28.029380069436602  14.683184178997331  14.413012116353036  34.85220571960506  -25.676142912450096  26.414569970121864  167.95312980575193  3.473554532180534  -151.0195027924535  25.67150702436595  0.000000
0.135  0.000000  0.000000  0.000000  -28.53548544582444  15.0085790305826  14.914899487336076  34.968536208696776  -25.92069833983514  26.320427937035795  157.68935544803674  2.532642440313309  -141.5729587091292  25.581638773291584  0.000000
0.15  0.000000  0.000000  0.000000  -28.97114300381056  15.22081845659388  15.289848790946712  35.16417011389804  -26.10927001882442  26.32898801581587  135.32596064767486  1.6989124544867076  -119.85536296426925  25.49131546035797  0.000000
0.16499999999999998  0.000000  0.000000  0.000000  -29.369159089130317  15.369673130773684  15.57853028957663  35.29442437073038  -26.1769650043337  26.32833702854496  93.8717137660539  1.445280442488272  -78.89160130595877  25.404841684942507  0.000000
0.18  0.000000  0.000000  0.000000  -29.68730582821882  15.485866509150517  15.815693697735757  35.463705945707346  -26.269453219302513  26.37182248493171  62.56053203799606  1.9402860509970608  -48.014143694885284  25.319524758863054  0.000000
0.195  0.000000  0.000000  0.000000  -29.97261353845211  15.607903057708302  16.046825932173817  35.54791979180728  -26.320500883632967  26.361261348477466  50.070466364856635  2.651884975355401  -35.92764975137978  25.23822234291191  0.000000
0.21  0.000000  0.000000  0.000000  -30.143942679471298  15.686379768998977  16.20550860658236  35.671689765230475  -26.396647381098845  26.397168391586217  45.715461964612444  3.3233868808724703  -31.927006648379255  25.166210955878185  0.000000
0.22499999999999998  0.000000  0.000000  0.000000  -30.25153008459994  15.733989734712749  16.325284007440576  35.7300599978728  -26.407091436794826  26.405747590548053  45.080657146314856  3.86160289048286  -31.565970999551922  25.096350663461944  0.000000
0.24  0.000000  0.000000  0.000000  -30.23406064886252  15.716658596528388  16.35986125453849  35.84804290049189  -26.434366238724465  26.48357459798305  46.482768308623434  4.2629149589327415  -33.130604401057944  25.028023399715366  0.000000
0.255  0.000000  0.000000  0.000000  -30.16040334082727  15.658817160098646  16.351876326737074  35.92707518636993  -26.392488785431343  26.558888125245677  49.11894768543269  4.516468970991823  -35.79382049982791  24.954282714145496  0.000000
0.27  0.000000  0.000000  0.000000  -29.99247590351096  15.529282509047432  16.28215159333332  36.081479191058015  -26.361501503566807  26.712269226827914  52.462975324758496  4.640481721690098  -39.01727773526978  24.870904099779374  0.000000
0.285  0.000000  0.000000  0.000000  -29.802487957359645  15.374863078582733  16.192807584310977  36.20791941051226  -26.272326164361772  26.865000956890054  55.72327483334098  4.658616073125239  -42.01696999545602  24.773195755992724  0.000000
0.3  0.000000  0.000000  0.000000  -29.574714834287757  15.1846924104482  16.09321301664057  36.40336557967709  -26.20730697174269  27.081422230304728  58.13763852979281  4.5778096409833  -44.0644601146741  24.649889819031845  0.000000
0.315  0.000000  0.000000  0.000000  -29.37829757937241  15.031068663047735  16.03937562657754  36.54167616150532  -26.11915259563714  27.246187739942016  58.290064056288315  4.447915597594974  -43.80765967155049  24.491685030879708  0.000000
0.32999999999999996  0.000000  0.000000  0.000000  -29.19818889017288  14.939049814326673  16.059608873377265  36.70971958280845  -26.106490208253767  27.41121035474776  54.86746284991476  4.3099134481085475  -40.044837638090925  24.276274354547215  0.000000
0.345  0.000000  0.000000  0.000000  -29.065523346162962  14.982996269774086  16.25902387128611  36.75754841318234  -26.13627281193662  27.41153721921291  46.4311376150269  4.310292854298636  -31.438704593535693  23.975881473270743  0.000000
0.36  0.000000  0.000000  0.000000  -28.87637668657629  15.225836968620014  16.58746512684979  36.73232060962198  -26.30219060445399  27.347806017410065  33.79302724896549  4.664561501959095  -19.00572398886019  23.60462747827907  0.000000
0.375  0.000000  0.000000  0.000000  -28.62060839076189  15.757771111433582  17.197763371553474  36.29189969624648  -26.69430872636741  26.772400219531352  22.514348035608286  5.736914021994029  -8.398676587934045  23.182885969725813  0.000000
0.39  0.000000  0.000000  0.000000  -28.051257105083504  16.91277650717323  18.166516506931096  35.27481516692284  -27.60758251087123  25.613433344044843  15.554874492742593  7.480637761432539  -2.8014782356399794  22.83982864518555  0.000000
0.40499999999999997  0.000000  0.000000  0.000000  -26.79831133195596  18.634612019597828  19.383399456992702  32.99864055664782  -29.179464763261677  22.995859540491896  14.62290875517976  10.158350916096222  -3.5342722025609854  22.751436845433265  0.000000
0.42  0.000000  0.000000  0.000000  -24.290403012954474  20.553423315873186  20.404305213057064  29.231994546752947  -31.4788880370821  18.817704285868995  15.60161490904868  13.842809306471704  -6.270949183161169  23.14255624722146  0.000000
0.435  0.000000  0.000000  0.000000  -19.884139841833797  22.59340001292392  21.17172858349626  22.788223972833944  -34.00194782966102  11.662494508375927  19.26730805421704  17.86798439090783  -11.61628196057165  24.00757413009796  0.000000
0.44999999999999996  0.000000  0.000000  0.000000  -12.543160983591228  23.49867877325187  21.69225438982619  13.36217981072905  -35.636589029331546  0.9120785129303478  22.75975561123251  22.278657426067568  -16.545448314408873  24.728806332727295  0.000000
0.46499999999999997  0.000000  0.000000  0.000000  -4.107603118108956  23.686841629916497  21.440599011095504  6.71918531939029  -35.787346300407464  -6.056072997313937  18.425140294014643  25.234789898229778  -13.919134028364361  24.167996418219012  0.000000
0.48  0.000000  0.000000  0.000000  0.48315995791924304  23.368635496148553  21.651698474862823  5.209597428238941  -35.59974033341846  -7.776900879045308  12.012203232765284  26.026353516327237  -8.174089644824125  22.776586472045917  0.000000
0.495  0.000000  0.000000  0.000000  0.9484109760398278  23.041118207423953  23.02852380232806  4.501220441456  -35.247494383005936  -9.233493210602148  10.41479781973349  25.86179509673889  -6.552357551197844  22.246647671996765  0.000000
0.51  0.000000  0.000000  0.000000  0.25519140758098774  23.597101695728192  24.09619156674403  3.766620127381117  -35.77858758380413  -10.454757808987319  11.240286796159934  25.70802018341355  -7.602506168159446  22.343136937455675  0.000000
0.525  0.000000  0.000000  0.000000  -0.8998429234894236  23.96628930698547  24.985619100353624  3.8042209224932653  -35.915528573535944  -10.677449585200788  12.48755713757006  25.703239887913604  -8.744047931801402  22.326968908763213  0.000000
